<svg width="120" height="123" viewBox="0 0 120 123" fill="none" xmlns="http://www.w3.org/2000/svg">
<path d="M60.2894 119.405C92.3059 119.405 118.26 93.4534 118.26 61.4411C118.26 29.4287 92.3059 3.47754 60.2894 3.47754C28.2729 3.47754 2.31836 29.4287 2.31836 61.4411C2.31836 93.4534 28.2729 119.405 60.2894 119.405Z" fill="url(#paint0_linear_15_6052)"/>
<path fill-rule="evenodd" clip-rule="evenodd" d="M105.508 97.6682C83.1887 86.3653 95.9423 41.1538 95.9423 41.1538C82.3191 52.1668 80.0003 60.5715 73.6235 75.3522C52.4641 123.172 12.7539 102.015 12.7539 102.015C56.2322 108.391 82.0293 51.5872 89.5655 41.4436C90.1452 40.8639 93.9133 37.0963 87.5365 38.8352C86.9568 38.8352 66.3771 43.1825 66.3771 53.3261C66.3771 54.4854 68.1162 57.3835 68.6959 57.6734C64.638 57.6734 55.9423 50.1381 60.2901 42.8927C60.2901 42.8927 60.2901 42.8927 60.2901 42.6028C69.8554 28.4018 85.5075 8.40436 100.29 20.2869C100.87 20.8665 101.16 22.3156 101.45 24.0545C102.319 28.4018 107.247 31.5898 111.305 31.0101C111.594 31.0101 100.87 35.937 98.551 41.4436C95.6525 47.8196 93.9133 85.4958 105.508 94.1904C107.826 95.9293 108.116 95.9293 108.406 95.6395C109.855 93.9006 110.725 93.0311 111.015 92.4515C111.015 92.4515 111.015 92.4515 111.305 92.4515C111.305 92.4515 108.116 96.7987 107.826 97.0886C107.537 97.3784 107.247 97.6682 106.667 97.6682C106.087 97.958 105.797 97.958 105.508 97.6682Z" fill="#FDFBFE"/>
<defs>
<linearGradient id="paint0_linear_15_6052" x1="18.2876" y1="22.3192" x2="103.785" y2="102.03" gradientUnits="userSpaceOnUse">
<stop stop-color="#5554CA"/>
<stop offset="1" stop-color="#6440B9"/>
</linearGradient>
</defs>
</svg>
