<svg width="80" height="80" viewBox="0 0 80 80" fill="none" xmlns="http://www.w3.org/2000/svg">
  <path fill-rule="evenodd" clip-rule="evenodd" d="M6 9c0-1.648 1.352-3 3-3h62c1.648 0 3 1.352 3 3v7H6V9zm70 0v62c0 2.752-2.248 5-5 5H9c-2.752 0-5-2.248-5-5V9c0-2.752 2.248-5 5-5h62c2.752 0 5 2.248 5 5zM6 18h68v53c0 1.648-1.352 3-3 3H9c-1.648 0-3-1.352-3-3V18zm64.371 12.928a1 1 0 1 0-.742-1.857l-5 2c-.15.06-.283.156-.388.278l-5.492 6.407-3.302-1.65a1 1 0 0 0-1.341.447l-4.659 9.317-4.16-.833-4.916-1.965a1 1 0 0 0-.886.07l-4.668 2.802-4.62-.925a1 1 0 0 0-.904.274l-4.367 4.367-4.301-3.44a1 1 0 0 0-1.14-.077l-4.668 2.8-4.62-.923a1 1 0 1 0-.393 1.96l5 1a.999.999 0 0 0 .71-.123l4.404-2.642 4.457 3.566a1 1 0 0 0 1.332-.074l4.622-4.622 4.475.895a.999.999 0 0 0 .71-.123l4.575-2.744 4.54 1.816a1 1 0 0 0 .175.051l5 1a1 1 0 0 0 1.09-.533l4.553-9.105 3.106 1.553a1 1 0 0 0 1.206-.244l5.84-6.814 4.772-1.909zM48.707 53.707L50 52.414l1.293 1.293A1 1 0 0 0 52 54h9v12H39V54h9a1 1 0 0 0 .707-.293zm2-3.414a1 1 0 0 0-1.414 0L47.586 52H38a1 1 0 0 0-1 1v14a1 1 0 0 0 1 1h24a1 1 0 0 0 1-1V53a1 1 0 0 0-1-1h-9.586l-1.707-1.707zm2.187 6.154a1 1 0 0 0-1.788-.894l-4 8a1 1 0 0 0 1.788.894l4-8zm-7.187 1.26a1 1 0 1 0-1.414-1.414l-3 3a1 1 0 0 0 0 1.414l3 3a1 1 0 1 0 1.414-1.414L43.414 60l2.293-2.293zm8.586-1.414a1 1 0 0 0 0 1.414L56.586 60l-2.293 2.293a1 1 0 1 0 1.414 1.414l3-3a1 1 0 0 0 0-1.414l-3-3a1 1 0 0 0-1.414 0zM11 12a1 1 0 1 0 0-2 1 1 0 0 0 0 2zm4 0a1 1 0 1 0 0-2 1 1 0 0 0 0 2zm5-1a1 1 0 1 1-2 0 1 1 0 0 1 2 0z" fill="#2869FB"></path>
</svg>