<svg width="80" height="80" viewBox="0 0 80 80" fill="none" xmlns="http://www.w3.org/2000/svg">
  <path fill-rule="evenodd" clip-rule="evenodd" d="M6 9c0-1.648 1.352-3 3-3h62c1.648 0 3 1.352 3 3v7H6V9zm0 9h68v53c0 1.648-1.352 3-3 3H9c-1.648 0-3-1.352-3-3V18zM9 4C6.248 4 4 6.248 4 9v62c0 2.752 2.248 5 5 5h62c2.752 0 5-2.248 5-5V9c0-2.752-2.248-5-5-5H9zm33 20a1 1 0 0 0-1 1v18a1 1 0 0 0 1 1h18a1 1 0 0 0 1-1c0-10.452-8.548-19-19-19zm1 18V26.03c8.556.502 15.468 7.414 15.97 15.97H43zm-5-14c-10.452 0-19 8.548-19 19s8.548 19 19 19 19-8.548 19-19a1 1 0 0 0-1-1H39V29a1 1 0 0 0-1-1zM21 47c0-9.012 7.113-16.448 16-16.97V47a1 1 0 0 0 1 1h16.97c-.522 8.887-7.958 16-16.97 16-9.348 0-17-7.652-17-17zM11 12a1 1 0 1 0 0-2 1 1 0 0 0 0 2zm4 0a1 1 0 1 0 0-2 1 1 0 0 0 0 2zm5-1a1 1 0 1 1-2 0 1 1 0 0 1 2 0z" fill="#2869FB"></path>
</svg>