<svg width="80" height="80" viewBox="0 0 80 80" fill="none" xmlns="http://www.w3.org/2000/svg">
  <path fill-rule="evenodd" clip-rule="evenodd" d="M6 9c0-1.648 1.352-3 3-3h62c1.648 0 3 1.352 3 3v7H6V9zm0 9h68v53c0 1.648-1.352 3-3 3H48V62c0-.575-.278-1.067-.605-1.395-.328-.327-.82-.605-1.395-.605H34c-.575 0-1.067.278-1.395.605-.327.328-.605.82-.605 1.395v12h-4V62c0-.575-.278-1.067-.605-1.395-.328-.327-.82-.605-1.395-.605H14c-1.216 0-2 1.014-2 2v12H9c-1.648 0-3-1.352-3-3V18zm20 58h45c2.752 0 5-2.248 5-5V9c0-2.752-2.248-5-5-5H9C6.248 4 4 6.248 4 9v62c0 2.752 2.248 5 5 5h17zM14 26c-1.216 0-2 1.014-2 2v12c0 .986.784 2 2 2h12c.575 0 1.067-.278 1.395-.605.327-.328.605-.82.605-1.395V28c0-.575-.278-1.067-.605-1.395-.328-.327-.82-.605-1.395-.605H14zm0 2h11.957a.186.186 0 0 1 .043.043v11.914a.18.18 0 0 1-.043.043H14V28zm20 11.957V28.043a.18.18 0 0 1 .043-.043h11.914a.186.186 0 0 1 .043.043v11.914a.18.18 0 0 1-.043.043H34.043a.154.154 0 0 1-.043-.043zM34 26c-.575 0-1.067.278-1.395.605-.327.328-.605.82-.605 1.395v12c0 .575.278 1.067.605 1.395.328.327.82.605 1.395.605h12c.575 0 1.067-.278 1.395-.605.327-.328.605-.82.605-1.395V28c0-.575-.278-1.067-.605-1.395-.328-.327-.82-.605-1.395-.605H34zm20 13.957V28.043a.18.18 0 0 1 .043-.043H66v12H54.043a.186.186 0 0 1-.023-.02l-.012-.012-.008-.01zM54 26c-.575 0-1.067.278-1.395.605-.327.328-.605.82-.605 1.395v12c0 .575.278 1.067.605 1.395.328.327.82.605 1.395.605h12c1.216 0 2-1.014 2-2V28c0-.986-.784-2-2-2H54zM13 45a1 1 0 0 0 0 2h14a1 1 0 0 0 0-2H13zm20 0a1 1 0 0 0 0 2h14a1 1 0 0 0 0-2H33zm20 0a1 1 0 0 0 0 2h14a1 1 0 0 0 0-2H53zm-40 5a1 1 0 0 0 0 2h14a1 1 0 0 0 0-2H13zm20 0a1 1 0 0 0 0 2h14a1 1 0 0 0 0-2H33zm20 0a1 1 0 0 0 0 2h14a1 1 0 0 0 0-2H53zM14 62h11.957a.186.186 0 0 1 .043.043V74H14V62zm20 12V62.043a.18.18 0 0 1 .039-.04l.004-.003h11.914a.186.186 0 0 1 .023.02l.01.01a.167.167 0 0 1 .01.013V74H34zM11 12a1 1 0 1 0 0-2 1 1 0 0 0 0 2zm4 0a1 1 0 1 0 0-2 1 1 0 0 0 0 2zm5-1a1 1 0 1 1-2 0 1 1 0 0 1 2 0z" fill="#2869FB"></path>
</svg>