<svg width="80" height="81" viewBox="0 0 80 81" fill="none" xmlns="http://www.w3.org/2000/svg">
  <path fill-rule="evenodd" clip-rule="evenodd" d="M5 9.38v.021V9.4v-.02zm23.99 55.811c-.052.033-.114.071-.19.11v9.5c0 .2.1.3.2.3.043 0 .067 0 .089-.009.03-.01.053-.034.111-.092l1.6-1.6c.1-.1.2-.1.3-.1.1 0 .2.1.3.2l2 4.7c.1.2.3.3.5.3h.2l1.1-.3c.3-.2.4-.4.3-.7l-2-4.7c-.1-.3 0-.5.3-.5h2.3c.2 0 .3-.2.1-.4l-6.8-6.7c-.1-.1-.1-.1-.2-.1-.062 0-.124.039-.21.091zm1.91-1.39l2.1 2.068v-6.955l-7-7-12.293 12.293a1 1 0 01-1.414-1.414l2.293-2.293L10 55.914l-8 8V67.5c0 .548.452 1 1 1h24v-3.1c0-1.3 1-2.3 2.2-2.3.5 0 1.1.2 1.7.7zm6.8 6.7c.6.6.8 1.6.5 2.4-.095.221-.23.424-.4.599a2.21 2.21 0 01-.539.406 2.588 2.588 0 01-.961.294l.125.3H71c1.648 0 3-1.352 3-3v-53H6v20h26c1.652 0 3 1.348 3 3v26.34l2.7 2.66zm-6 8.5l-1-2.4a2.86 2.86 0 01-.877.495c-.207.07-.415.104-.623.104-.67 0-1.233-.265-1.622-.7H9a4.89 4.89 0 01-4.9-5.12v-.88H3c-1.652 0-3-1.348-3-3v-26c0-1.652 1.348-3 3-3h1V9.422C3.886 6.718 6.184 4.5 8.9 4.5H71c2.752 0 5 2.248 5 5v62c0 2.752-2.248 5-5 5H37.258l.042.1a2.123 2.123 0 010 1.9c-.3.7-.8 1.1-1.4 1.4l-.9.4c-.083.02-.162.042-.237.061h-.001c-.287.076-.525.14-.762.14-1 0-1.9-.6-2.3-1.5zM6.1 70.5v.9l-.001.043a2.892 2.892 0 002.9 3.057H27v-4H6.1zM2 41.5c0-.548.452-1 1-1h29c.548 0 1 .452 1 1v14.586l-6.293-6.293a1 1 0 00-1.414 0L16 59.086l-5.293-5.293a1 1 0 00-1.414 0L2 61.086V41.5zm72-32c0-1.648-1.352-3-3-3H8.9C7.225 6.5 5.928 7.868 6 9.352L6 9.4v7.1h68v-7zm-57 18a1 1 0 011-1h15a1 1 0 110 2H18a1 1 0 01-1-1zm29 0a1 1 0 011-1h15a1 1 0 110 2H47a1 1 0 01-1-1zm-42 19a4 4 0 118 0 4 4 0 01-8 0zm4-2a2 2 0 100 4 2 2 0 000-4zm4-33a1 1 0 11-2 0 1 1 0 012 0zm8 0a1 1 0 11-2 0 1 1 0 012 0zm46 25a1 1 0 100-2 1 1 0 000 2zm-51-1a1 1 0 11-2 0 1 1 0 012 0zm3 1a1 1 0 100-2 1 1 0 000 2zm5-1a1 1 0 11-2 0 1 1 0 012 0zm3 1a1 1 0 100-2 1 1 0 000 2zm5-1a1 1 0 11-2 0 1 1 0 012 0zm3 1a1 1 0 100-2 1 1 0 000 2zm13-1a1 1 0 11-2 0 1 1 0 012 0zm3 1a1 1 0 100-2 1 1 0 000 2zm5-1a1 1 0 11-2 0 1 1 0 012 0zm3 1a1 1 0 100-2 1 1 0 000 2zm5-1a1 1 0 11-2 0 1 1 0 012 0zm3 5a1 1 0 100-2 1 1 0 000 2zm1 3a1 1 0 11-2 0 1 1 0 012 0zm-1 5a1 1 0 100-2 1 1 0 000 2zm1 3a1 1 0 11-2 0 1 1 0 012 0zm-1 5a1 1 0 100-2 1 1 0 000 2zm-27-21a1 1 0 11-2 0 1 1 0 012 0zm-1 21a1 1 0 100-2 1 1 0 000 2zm5-21a1 1 0 11-2 0 1 1 0 012 0zm-1 21a1 1 0 100-2 1 1 0 000 2zm5-1a1 1 0 11-2 0 1 1 0 012 0zm3 1a1 1 0 100-2 1 1 0 000 2zm5-1a1 1 0 11-2 0 1 1 0 012 0zm3 1a1 1 0 100-2 1 1 0 000 2zm5-1a1 1 0 11-2 0 1 1 0 012 0zm-48-43a1 1 0 100-2 1 1 0 000 2zm25 17a2 2 0 100-4 2 2 0 000 4z" fill="#2869FB"></path>
</svg>