<svg width="157" height="41" viewBox="0 0 157 41" fill="none" xmlns="http://www.w3.org/2000/svg">
<circle cx="22" cy="20" r="20" fill="url(#paint0_linear_1_24)"/>
<path fill-rule="evenodd" clip-rule="evenodd" d="M37.5508 32.5072C29.9092 28.5579 34.2693 12.9643 34.2693 12.9643C29.6013 16.7718 28.8038 19.6656 26.5521 24.7174C19.2071 41.1983 5.51082 33.9227 5.57232 33.9318C20.5822 36.1492 29.46 16.5711 32.0907 13.007C32.2507 12.7873 33.6188 11.5003 31.3733 12.1341C31.2059 12.1789 24.0977 13.6812 24.0993 17.1406C24.0995 17.5496 24.6597 18.5052 24.8868 18.6339C23.4904 18.5991 20.5244 16.0386 21.9549 13.5716C21.9655 13.5527 21.9774 13.5346 21.9906 13.5173C25.3363 8.64532 30.6529 1.75593 35.809 5.85998C35.9603 6.03249 36.0641 6.50958 36.1899 7.08517C36.528 8.62434 38.1435 9.68907 39.5765 9.50104C39.6823 9.4876 36.0072 11.1628 35.1651 13.0821C34.1981 15.2864 33.5938 28.265 37.5413 31.3124C38.294 31.8926 38.4337 31.8913 38.506 31.8102C39.0517 31.1931 39.3003 30.8879 39.4554 30.7483C39.4929 30.7169 39.4843 30.7661 39.5229 30.7963C39.5616 30.8264 38.4076 32.2754 38.3578 32.3591C38.2526 32.4594 38.1196 32.5271 37.9758 32.5535C37.832 32.5799 37.684 32.5637 37.5508 32.5072Z" fill="#FDFBFE"/>
<path d="M77.2118 25.3992H70.9238L69.9158 28.3752H65.6198L71.7158 11.5272H76.4678L82.5638 28.3752H78.2198L77.2118 25.3992ZM76.1558 22.2312L74.0678 16.0632L72.0038 22.2312H76.1558ZM91.8831 24.8952V28.3752H89.7951C88.3071 28.3752 87.1471 28.0152 86.3151 27.2952C85.4831 26.5592 85.0671 25.3672 85.0671 23.7192V18.3912H83.4351V14.9832H85.0671V11.7192H89.1711V14.9832H91.8591V18.3912H89.1711V23.7672C89.1711 24.1672 89.2671 24.4552 89.4591 24.6312C89.6511 24.8072 89.9711 24.8952 90.4191 24.8952H91.8831ZM93.3531 21.6552C93.3531 20.2792 93.6091 19.0712 94.1211 18.0312C94.6491 16.9912 95.3611 16.1912 96.2571 15.6312C97.1531 15.0712 98.1531 14.7912 99.2571 14.7912C100.201 14.7912 101.025 14.9832 101.729 15.3672C102.449 15.7512 103.001 16.2552 103.385 16.8792V14.9832H107.489V28.3752H103.385V26.4792C102.985 27.1032 102.425 27.6072 101.705 27.9912C101.001 28.3752 100.177 28.5672 99.2331 28.5672C98.1451 28.5672 97.1531 28.2872 96.2571 27.7272C95.3611 27.1512 94.6491 26.3432 94.1211 25.3032C93.6091 24.2472 93.3531 23.0312 93.3531 21.6552ZM103.385 21.6792C103.385 20.6552 103.097 19.8472 102.521 19.2552C101.961 18.6632 101.273 18.3672 100.457 18.3672C99.6411 18.3672 98.9451 18.6632 98.3691 19.2552C97.8091 19.8312 97.5291 20.6312 97.5291 21.6552C97.5291 22.6792 97.8091 23.4952 98.3691 24.1032C98.9451 24.6952 99.6411 24.9912 100.457 24.9912C101.273 24.9912 101.961 24.6952 102.521 24.1032C103.097 23.5112 103.385 22.7032 103.385 21.6792ZM109.642 21.6792C109.642 20.2872 109.922 19.0712 110.482 18.0312C111.058 16.9912 111.85 16.1912 112.858 15.6312C113.882 15.0712 115.05 14.7912 116.362 14.7912C118.042 14.7912 119.442 15.2312 120.562 16.1112C121.698 16.9912 122.442 18.2312 122.794 19.8312H118.426C118.058 18.8072 117.346 18.2952 116.29 18.2952C115.538 18.2952 114.938 18.5912 114.49 19.1832C114.042 19.7592 113.818 20.5912 113.818 21.6792C113.818 22.7672 114.042 23.6072 114.49 24.1992C114.938 24.7752 115.538 25.0632 116.29 25.0632C117.346 25.0632 118.058 24.5512 118.426 23.5272H122.794C122.442 25.0952 121.698 26.3272 120.562 27.2232C119.426 28.1192 118.026 28.5672 116.362 28.5672C115.05 28.5672 113.882 28.2872 112.858 27.7272C111.85 27.1672 111.058 26.3672 110.482 25.3272C109.922 24.2872 109.642 23.0712 109.642 21.6792ZM133.221 14.8392C134.757 14.8392 135.989 15.3512 136.917 16.3752C137.845 17.3832 138.309 18.7752 138.309 20.5512V28.3752H134.229V21.1032C134.229 20.2072 133.997 19.5112 133.533 19.0152C133.069 18.5192 132.445 18.2712 131.661 18.2712C130.877 18.2712 130.253 18.5192 129.789 19.0152C129.325 19.5112 129.093 20.2072 129.093 21.1032V28.3752H124.989V10.6152H129.093V16.7832C129.509 16.1912 130.077 15.7192 130.797 15.3672C131.517 15.0152 132.325 14.8392 133.221 14.8392ZM140.345 21.6552C140.345 20.2792 140.601 19.0712 141.113 18.0312C141.641 16.9912 142.353 16.1912 143.249 15.6312C144.145 15.0712 145.145 14.7912 146.249 14.7912C147.193 14.7912 148.017 14.9832 148.721 15.3672C149.441 15.7512 149.993 16.2552 150.377 16.8792V14.9832H154.481V28.3752H150.377V26.4792C149.977 27.1032 149.417 27.6072 148.697 27.9912C147.993 28.3752 147.169 28.5672 146.225 28.5672C145.137 28.5672 144.145 28.2872 143.249 27.7272C142.353 27.1512 141.641 26.3432 141.113 25.3032C140.601 24.2472 140.345 23.0312 140.345 21.6552ZM150.377 21.6792C150.377 20.6552 150.089 19.8472 149.513 19.2552C148.953 18.6632 148.265 18.3672 147.449 18.3672C146.633 18.3672 145.937 18.6632 145.361 19.2552C144.801 19.8312 144.521 20.6312 144.521 21.6552C144.521 22.6792 144.801 23.4952 145.361 24.1032C145.937 24.6952 146.633 24.9912 147.449 24.9912C148.265 24.9912 148.953 24.6952 149.513 24.1032C150.089 23.5112 150.377 22.7032 150.377 21.6792Z" fill="#FAFAFA"/>
<defs>
<linearGradient id="paint0_linear_1_24" x1="8.5" y1="5.5" x2="38" y2="33" gradientUnits="userSpaceOnUse">
<stop stop-color="#5554CA"/>
<stop offset="1" stop-color="#6440B9"/>
</linearGradient>
</defs>
</svg>
