<svg width="208" height="181" viewBox="0 0 208 181" fill="none" xmlns="http://www.w3.org/2000/svg">
<path fill-rule="evenodd" clip-rule="evenodd" d="M177.663 179.498C138.985 147.619 175.873 54.3567 175.873 54.3567C147.081 73.7256 140.299 91.0438 123.741 120.465C69.7275 216.449 0.567346 158.079 0.897509 158.194C81.4702 186.217 146.472 72.3385 163.876 52.566C164.936 51.3452 173.517 44.6001 160.661 46.4371C159.705 46.5591 119.429 49.2278 116.565 70.8326C116.227 73.3869 118.509 79.8833 119.649 80.9018C112.011 79.3656 97.8518 60.5742 107.754 46.5196C107.828 46.4116 107.909 46.3095 107.996 46.2141C130.411 18.9489 165.323 -19.0532 190.226 11.4455C190.913 12.6656 191.087 15.743 191.3 19.4563C191.878 29.3875 199.864 37.5623 207.888 37.7414C208.48 37.7574 186.911 44.7478 180.693 55.9386C173.554 68.7905 159.459 149.269 178.603 172.028C182.254 176.362 183.022 176.486 183.486 176.048C186.995 172.709 188.613 171.038 189.581 170.313C189.813 170.153 189.724 170.452 189.912 170.676C190.099 170.901 182.559 178.86 182.217 179.335C181.556 179.863 180.77 180.16 179.958 180.189C179.147 180.218 178.347 179.977 177.663 179.498Z" fill="#FDFBFE"/>
</svg>
